<?xml version="1.0" standalone="no"?>
<!DOCTYPE svg PUBLIC "-//W3C//DTD SVG 20010904//EN"
 "http://www.w3.org/TR/2001/REC-SVG-20010904/DTD/svg10.dtd">
<svg version="1.0" xmlns="http://www.w3.org/2000/svg"
 width="1672.000000pt" height="708.000000pt" viewBox="0 0 1672.000000 708.000000"
 preserveAspectRatio="xMidYMid meet">

<g transform="translate(0.000000,708.000000) scale(0.100000,-0.100000)"
fill="#000000" stroke="none">
<path d="M15515 6990 c-21 -16 -45 -30 -55 -30 -9 0 -27 -11 -40 -25 -13 -14
-29 -25 -37 -25 -7 0 -13 -4 -13 -9 0 -5 -15 -18 -34 -28 -87 -46 -349 -299
-512 -493 -74 -88 -268 -380 -489 -735 -24 -38 -57 -88 -74 -110 -91 -123
-306 -515 -416 -760 -215 -481 -347 -966 -321 -1179 7 -55 87 -232 99 -220 14
14 76 -52 88 -93 16 -60 32 -66 27 -12 -2 34 0 44 12 44 9 0 15 -10 16 -25 1
-37 15 -80 26 -80 6 0 7 11 4 24 -3 14 -2 27 4 31 5 3 12 -6 16 -20 8 -31 23
-24 17 8 -5 25 20 56 32 37 16 -26 26 -6 21 48 -3 45 0 63 13 81 16 21 20 22
39 10 14 -9 20 -21 17 -34 -10 -47 -13 -135 -5 -140 4 -3 11 22 15 56 7 59 16
71 21 26 1 -12 3 -25 3 -29 1 -5 4 -8 9 -8 9 0 28 45 37 88 5 23 12 32 27 32
14 0 18 -5 14 -16 -4 -10 -1 -14 6 -12 7 3 13 13 13 23 0 10 9 23 19 29 54 30
132 80 136 86 3 4 21 18 40 31 19 13 93 69 164 124 139 108 191 146 276 203
215 142 321 210 360 231 25 13 78 43 117 67 40 24 75 44 77 44 2 0 30 15 63
33 90 51 284 139 291 132 6 -5 -9 -37 -119 -255 -119 -238 -187 -365 -284
-530 -20 -36 -49 -85 -63 -110 -13 -25 -39 -70 -57 -100 -18 -30 -71 -120
-118 -200 -70 -120 -146 -235 -317 -484 -16 -23 -178 -241 -220 -296 -27 -35
-237 -305 -295 -379 -43 -55 -248 -303 -324 -391 -67 -79 -103 -120 -221 -260
-40 -47 -112 -131 -161 -187 -82 -93 -102 -123 -81 -123 4 0 13 5 20 12 26 26
20 -1 -10 -42 -20 -27 -28 -45 -21 -47 7 -3 9 -11 6 -19 -4 -10 3 -14 27 -14
l32 0 -36 -40 c-38 -43 -44 -55 -22 -47 17 7 45 -41 30 -51 -21 -14 -37 -54
-25 -62 7 -4 11 -11 10 -16 -1 -5 -1 -20 0 -33 1 -21 4 -23 35 -18 34 5 35 5
38 -31 3 -32 7 -37 30 -40 15 -2 43 4 62 13 28 14 38 14 55 3 18 -11 24 -9 49
15 15 15 32 27 37 27 5 0 22 12 37 27 31 29 37 17 12 -22 -21 -33 -13 -31 38
5 30 22 44 27 49 18 5 -8 31 11 79 58 204 197 283 276 345 342 59 63 68 76 58
91 -10 16 -4 25 38 66 59 57 65 49 8 -12 -22 -25 -38 -47 -35 -51 4 -3 19 7
35 24 15 16 49 48 75 71 27 24 60 60 76 80 15 21 50 61 79 88 56 55 203 221
266 300 44 56 61 76 102 122 15 17 37 44 48 59 11 15 38 50 61 78 22 28 48 68
58 89 10 21 29 48 42 60 13 11 24 24 24 29 0 8 39 68 120 188 20 30 47 74 58
96 12 23 27 48 35 55 37 39 151 262 139 273 -3 3 1 6 9 6 14 1 104 171 104
197 0 8 6 17 13 22 8 4 10 15 6 26 -5 11 -3 16 2 12 15 -9 64 89 52 101 -7 7
-3 14 10 21 21 11 112 184 112 213 0 9 5 20 10 23 6 3 10 14 10 24 0 10 7 24
15 31 11 9 14 22 10 42 -6 23 -3 28 13 28 13 0 22 11 30 38 8 23 8 38 2 40
-18 6 -10 32 9 32 21 0 33 33 24 68 -4 17 -2 21 10 16 20 -7 32 13 18 30 -8
10 -5 18 14 32 14 10 25 28 25 40 0 12 8 32 18 45 19 25 29 61 38 139 3 25 13
53 22 64 10 10 16 26 14 36 -2 10 2 21 8 25 5 3 10 19 10 34 0 15 14 46 30 68
21 29 32 55 33 85 2 24 12 60 24 79 11 18 24 54 28 79 12 75 30 100 70 100 27
0 38 5 46 23 7 16 28 29 62 40 29 10 57 20 64 25 16 10 20 36 6 37 -26 0 -17
20 15 34 37 17 42 43 10 65 l-22 15 38 36 c21 19 31 35 24 35 -7 0 -20 5 -28
10 -12 8 -10 14 14 39 20 21 31 44 33 70 4 37 2 40 -24 43 -24 3 -28 7 -25 31
2 21 -3 29 -23 37 -14 5 -25 14 -25 19 0 11 -38 22 -42 11 -2 -4 -13 -11 -25
-14 -17 -6 -23 -3 -23 8 0 18 -23 21 -50 6 -12 -7 -34 -7 -59 -1 -22 5 -43 5
-48 1 -4 -4 -42 -12 -83 -18 -41 -6 -120 -30 -175 -51 -55 -22 -109 -41 -119
-41 -11 0 -38 -8 -60 -19 -23 -10 -70 -28 -106 -41 -36 -12 -72 -29 -81 -36
-8 -8 -29 -14 -45 -14 -17 0 -34 -4 -39 -9 -6 -5 -48 -23 -95 -40 -47 -18 -98
-39 -115 -47 -16 -9 -86 -46 -155 -81 -69 -36 -134 -75 -144 -86 -11 -11 -51
-35 -90 -54 -84 -39 -98 -48 -151 -89 -22 -17 -47 -33 -55 -37 -12 -4 -11 -6
3 -6 22 -1 18 -20 -6 -35 -13 -8 -20 -8 -26 3 -7 10 -13 11 -30 2 -24 -13 -28
-23 -7 -19 24 5 21 -16 -3 -28 -13 -7 -37 -25 -54 -42 -18 -16 -58 -42 -89
-57 -32 -14 -58 -31 -58 -36 0 -5 -7 -9 -15 -9 -8 0 -15 -4 -15 -10 0 -5 -9
-10 -20 -10 -29 0 -46 47 -25 70 8 9 15 22 15 28 0 6 7 28 16 49 19 44 30 71
38 96 4 14 12 17 28 11 20 -6 21 -5 6 10 -19 19 -10 69 18 96 15 14 16 13 9
-9 -5 -17 -4 -22 6 -19 8 3 29 40 47 84 18 43 51 115 72 160 22 44 48 100 59
125 19 41 39 79 142 265 42 77 48 100 23 90 -12 -5 -14 -1 -9 17 11 33 48 97
57 97 11 0 10 -28 -2 -35 -5 -3 -10 -14 -10 -23 1 -21 43 27 65 73 8 17 20 39
26 50 40 68 69 128 64 133 -2 3 -7 -3 -11 -12 -3 -9 -10 -16 -15 -16 -16 0
-10 26 10 44 28 26 36 65 15 81 -16 11 -16 14 3 41 11 16 37 64 57 107 27 56
42 77 52 73 12 -5 12 -2 3 16 -9 17 -9 23 0 26 6 2 11 14 11 27 0 19 6 24 33
27 26 2 34 9 42 34 6 16 18 42 28 57 9 15 15 27 12 27 -8 0 170 236 217 287
21 24 38 51 38 61 0 9 27 42 60 72 33 30 60 60 60 66 0 6 9 19 21 30 27 25 56
88 64 144 5 34 13 49 28 55 12 6 22 19 22 30 0 16 -6 19 -25 17 -38 -5 -112
-40 -132 -62 -17 -18 -48 -28 -48 -15 0 2 16 21 35 41 43 44 45 60 4 39 -17
-9 -33 -14 -37 -11 -3 3 0 6 6 6 7 0 12 7 12 15 0 17 -14 19 -40 5 -13 -7 -19
-6 -23 4 -6 16 2 29 28 44 18 10 17 11 -11 12 -20 0 -45 -11 -69 -30z m-514
-1413 c-1 -4 -1 -14 -1 -22 0 -8 -4 -15 -9 -15 -10 0 -21 36 -13 45 7 7 24 2
23 -8z m-101 -117 c0 -5 -4 -10 -10 -10 -5 0 -10 5 -10 10 0 6 5 10 10 10 6 0
10 -4 10 -10z m-138 -332 c-8 -8 -9 -4 -5 13 4 13 8 18 11 10 2 -7 -1 -18 -6
-23z m-64 -135 c-8 -10 -18 -27 -23 -38 -5 -14 -9 -16 -12 -7 -7 19 17 62 35
62 13 0 13 -2 0 -17z m-68 -147 c0 -3 -4 -8 -10 -11 -5 -3 -10 -1 -10 4 0 6 5
11 10 11 6 0 10 -2 10 -4z m-50 -94 c0 -5 -7 -17 -15 -28 -15 -19 -20 -8 -9
20 6 17 24 22 24 8z m220 -222 c0 -5 -5 -10 -11 -10 -5 0 -7 5 -4 10 3 6 8 10
11 10 2 0 4 -4 4 -10z m690 -140 c-24 -15 -36 -11 -14 4 10 8 21 12 24 10 2
-3 -2 -9 -10 -14z m-1145 -170 c3 -5 -1 -10 -10 -10 -9 0 -13 5 -10 10 3 6 8
10 10 10 2 0 7 -4 10 -10z m1725 -150 c0 -5 -5 -10 -11 -10 -5 0 -7 5 -4 10 3
6 8 10 11 10 2 0 4 -4 4 -10z m-98 -242 c-7 -7 -12 -8 -12 -2 0 14 12 26 19
19 2 -3 -1 -11 -7 -17z m-12 -41 c0 -15 -29 -57 -30 -42 0 6 3 20 6 33 7 24
24 31 24 9z m-80 -191 c0 -15 -44 -98 -47 -89 -5 15 28 93 39 93 4 0 8 -2 8
-4z m-160 -351 c0 -8 -4 -15 -10 -15 -5 0 -7 7 -4 15 4 8 8 15 10 15 2 0 4 -7
4 -15z m-80 -172 c-13 -26 -25 -43 -27 -36 -5 14 36 97 44 89 3 -3 -5 -27 -17
-53z m-200 -387 c0 -7 -7 -19 -15 -26 -16 -13 -20 -3 -9 24 8 20 24 21 24 2z
m-115 -196 c-15 -23 -29 -40 -31 -37 -3 2 8 23 22 46 15 22 29 39 31 37 3 -2
-7 -23 -22 -46z m-91 -145 c-30 -46 -54 -63 -33 -22 16 29 53 75 58 71 2 -2
-10 -24 -25 -49z m-664 -855 c0 -5 -2 -10 -4 -10 -3 0 -8 5 -11 10 -3 6 -1 10
4 10 6 0 11 -4 11 -10z m-989 -203 c-10 -9 -11 -8 -5 6 3 10 9 15 12 12 3 -3
0 -11 -7 -18z m-67 -82 c-4 -8 -10 -15 -15 -15 -4 0 -6 7 -3 15 4 8 10 15 15
15 4 0 6 -7 3 -15z m-44 -55 c0 -5 -5 -10 -11 -10 -5 0 -7 5 -4 10 3 6 8 10
11 10 2 0 4 -4 4 -10z m-16 -225 c-6 -16 -44 -41 -44 -30 0 4 5 15 10 26 13
23 42 26 34 4z"/>
<path d="M11290 6862 c-8 -9 -23 -31 -34 -47 -10 -17 -33 -44 -52 -61 l-33
-32 -3 27 c-3 25 -4 25 -31 -16 -15 -24 -27 -49 -27 -57 0 -21 -27 -40 -33
-24 -4 9 -6 7 -6 -4 -1 -9 4 -20 9 -23 17 -10 2 -24 -20 -18 -17 5 -20 0 -20
-26 0 -21 -5 -31 -15 -31 -22 0 -52 -76 -56 -141 -3 -35 -10 -58 -20 -66 -9
-7 -19 -30 -22 -50 -3 -21 -13 -72 -22 -113 -8 -41 -20 -96 -25 -121 -5 -26
-14 -98 -20 -160 -6 -63 -15 -157 -20 -209 -44 -439 -40 -984 10 -1520 16
-165 18 -189 29 -290 6 -52 11 -127 11 -167 0 -42 5 -75 11 -79 8 -5 10 -28 6
-71 -5 -44 -2 -75 7 -97 8 -20 12 -58 10 -101 -2 -42 1 -78 9 -94 8 -16 10
-41 6 -66 -4 -22 -3 -48 2 -57 5 -9 9 -31 9 -48 0 -17 9 -56 19 -88 11 -31 22
-86 26 -122 3 -36 8 -87 10 -115 3 -27 9 -66 14 -85 9 -31 30 -151 51 -295 4
-27 13 -61 18 -75 6 -14 21 -68 32 -120 85 -378 265 -900 310 -900 6 0 10 -6
10 -13 0 -24 60 -86 77 -80 10 4 22 -2 33 -17 16 -21 20 -22 54 -10 26 8 36
17 36 32 0 20 1 20 26 3 30 -20 40 -15 25 13 -11 21 -5 52 9 52 5 0 10 -5 12
-11 2 -7 16 -13 31 -15 20 -2 32 5 48 27 11 16 25 26 31 23 11 -7 9 17 -7 101
-6 28 -6 29 9 11 21 -26 29 -15 15 20 -15 40 -67 258 -90 379 -10 55 -26 132
-34 170 -9 39 -23 104 -31 145 -30 155 -37 187 -50 245 -8 32 -24 120 -35 195
-11 74 -24 155 -29 180 -4 25 -16 90 -25 145 -30 179 -37 208 -45 196 -4 -7
-5 -33 -2 -57 2 -24 1 -44 -4 -44 -15 0 -34 54 -35 96 -1 22 -7 62 -14 89 -7
28 -16 88 -20 135 -3 47 -9 101 -11 120 -11 77 -14 101 -24 250 -17 230 -23
410 -13 410 8 0 53 -64 53 -76 0 -3 23 -31 50 -61 47 -51 69 -91 35 -63 -22
18 -18 4 7 -30 11 -16 25 -27 31 -23 11 7 27 -15 27 -39 0 -24 61 -108 99
-136 17 -12 28 -28 26 -35 -6 -13 2 -24 111 -168 177 -234 437 -519 474 -519
5 0 10 -6 10 -14 0 -7 33 -42 73 -78 72 -64 86 -75 195 -158 l59 -45 27 -115
c36 -146 62 -227 83 -259 10 -14 16 -31 15 -37 -4 -19 48 -125 58 -119 6 4 5
14 -5 28 -19 27 -20 43 -1 28 8 -7 17 -24 21 -39 9 -39 56 -132 66 -132 4 0
14 9 22 20 15 22 27 17 27 -11 0 -9 8 -27 19 -40 l18 -23 23 22 c13 12 30 22
37 22 9 0 11 9 6 32 l-6 32 30 -22 c41 -29 47 -28 40 11 -6 40 6 68 18 40 7
-16 9 -15 15 7 l8 25 7 -22 c8 -26 35 -31 35 -8 0 8 7 15 15 15 10 0 15 10 15
33 1 27 2 29 11 14 6 -9 14 -15 18 -13 8 5 5 161 -4 236 -5 43 -16 207 -19
280 -1 22 -6 34 -13 33 -7 -2 -13 2 -13 7 0 6 5 10 11 10 7 0 9 35 4 113 -7
126 -12 197 -15 212 -1 6 -3 39 -4 75 -1 36 -7 151 -14 255 -7 105 -19 339
-28 520 -8 182 -19 334 -25 340 -11 11 -11 20 -11 -154 0 -179 -13 -229 -21
-81 -4 58 -7 114 -8 125 -1 11 -3 58 -4 105 -2 47 -6 150 -9 230 -9 235 -10
449 -3 457 4 3 8 -16 8 -43 2 -63 6 -116 14 -184 4 -30 8 -125 11 -210 2 -85
7 -166 11 -180 12 -46 22 58 12 140 -4 41 -13 215 -19 385 -16 450 -28 648
-42 656 -12 8 -12 138 0 489 12 311 9 557 -6 572 -17 17 -15 54 3 72 17 17 20
36 5 36 -5 0 -10 4 -10 10 0 5 6 7 13 4 11 -4 11 7 1 63 -15 87 -22 103 -45
103 -12 0 -16 5 -13 15 4 10 0 15 -12 15 -13 0 -28 -19 -48 -59 -16 -34 -37
-61 -47 -64 -25 -7 -24 10 2 23 16 9 18 14 8 26 -10 12 -14 10 -25 -11 -8 -14
-21 -37 -29 -52 -8 -16 -15 -37 -15 -49 0 -11 -4 -24 -9 -30 -9 -9 -72 -231
-104 -364 -25 -105 -56 -289 -62 -370 -3 -41 -12 -131 -20 -200 -21 -188 -36
-370 -41 -510 -2 -69 -8 -147 -14 -175 -5 -27 -12 -124 -16 -215 -3 -91 -8
-168 -10 -171 -2 -3 -6 -143 -10 -310 -3 -167 -7 -315 -8 -329 -2 -14 -4 -130
-4 -257 -1 -128 -5 -233 -9 -233 -5 0 -35 37 -68 82 -80 108 -251 284 -273
280 -13 -2 -14 -1 -4 6 11 7 -1 29 -52 93 -37 46 -72 91 -80 99 -7 8 -47 57
-90 107 -42 51 -83 96 -89 100 -7 5 -24 27 -39 50 -44 67 -103 124 -122 117
-13 -5 -16 0 -16 25 0 39 -64 115 -78 93 -7 -10 -17 -4 -41 24 -32 40 -38 54
-21 54 6 0 10 5 10 11 0 7 -9 9 -21 6 -27 -7 -62 27 -54 54 5 14 2 19 -10 19
-38 0 -105 114 -107 182 0 42 -3 48 -19 43 -22 -7 -26 8 -28 99 -1 38 3 74 9
82 7 7 9 18 5 24 -4 6 -1 18 6 26 8 10 11 49 10 117 -2 146 -9 187 -32 187
-17 0 -19 8 -19 91 0 77 2 90 14 80 12 -10 14 -2 14 48 0 47 -3 58 -14 54 -8
-3 -14 1 -14 11 0 10 6 13 15 9 14 -5 15 8 11 103 -5 126 -3 117 -15 109 -15
-9 -19 6 -22 75 -2 75 9 177 21 201 6 10 5 20 -2 27 -7 7 -7 29 0 74 10 58 24
177 36 306 4 39 2 52 -8 52 -16 0 -25 -21 -33 -75 -6 -50 -23 -71 -23 -29 0
19 -3 24 -8 16 -9 -13 -5 121 3 146 4 10 12 8 34 -7 38 -28 41 -27 41 12 -1
26 -2 29 -11 15 -16 -28 -27 -21 -27 16 0 39 -10 76 -20 76 -4 0 -14 -8 -22
-18z m1746 -204 c4 -7 4 -10 -1 -6 -4 4 -14 3 -22 -3 -10 -9 -13 -8 -13 5 0
19 26 22 36 4z m-1966 -103 c0 -8 -4 -15 -10 -15 -5 0 -10 7 -10 15 0 8 5 15
10 15 6 0 10 -7 10 -15z m260 -692 c0 -20 -3 -24 -11 -16 -7 7 -9 19 -6 27 10
24 17 19 17 -11z m20 -573 c0 -5 -4 -10 -10 -10 -5 0 -10 5 -10 10 0 6 5 10
10 10 6 0 10 -4 10 -10z m6 -64 c3 -8 4 -23 2 -32 -3 -17 -4 -17 -20 0 -9 9
-15 23 -12 31 8 19 23 19 30 1z m1720 -233 c-11 -11 -24 9 -18 29 l5 22 9 -24
c5 -12 6 -25 4 -27z m4 -56 c0 -18 -2 -19 -10 -7 -13 20 -13 43 0 35 6 -3 10
-16 10 -28z m-937 -1013 c16 -19 25 -34 20 -33 -4 0 -21 16 -36 35 -16 19 -25
34 -20 33 4 0 21 -16 36 -35z m982 -102 c0 -31 -19 -28 -23 4 -3 18 0 25 10
22 7 -3 13 -14 13 -26z m-1610 -896 c9 -19 14 -43 11 -54 -4 -11 -2 -32 4 -48
7 -16 13 -51 15 -79 2 -27 11 -81 20 -120 9 -38 19 -83 21 -100 3 -16 14 -75
25 -130 10 -55 24 -131 30 -170 5 -38 12 -87 16 -107 7 -53 -13 -49 -23 5 -9
47 -9 46 -17 67 -3 8 -7 26 -10 40 -3 14 -17 83 -31 153 -15 71 -29 161 -32
200 -4 40 -10 92 -16 117 -5 25 -11 67 -14 94 -3 27 -9 56 -13 65 -13 23 -17
101 -6 101 2 0 11 -15 20 -34z m1702 -713 c-3 -10 -5 -4 -5 12 0 17 2 24 5 18
2 -7 2 -21 0 -30z m-1530 -258 c2 -14 -1 -25 -7 -25 -5 0 -10 14 -10 32 0 35
12 30 17 -7z"/>
<path d="M11115 6760 c-3 -5 -1 -10 4 -10 6 0 11 5 11 10 0 6 -2 10 -4 10 -3
0 -8 -4 -11 -10z"/>
<path d="M6143 6658 c-4 -7 -19 -13 -33 -13 -17 0 -26 -7 -30 -25 -5 -18 -12
-24 -29 -23 -12 2 -24 -4 -27 -12 -4 -8 -12 -15 -20 -15 -16 0 -15 3 -20 -70
-3 -52 -10 -141 -18 -220 -12 -120 -18 -171 -26 -215 -15 -82 -29 -277 -36
-485 -3 -107 -8 -197 -10 -200 -3 -2 -47 -27 -99 -55 -100 -54 -180 -118 -172
-139 3 -8 0 -19 -6 -25 -17 -17 26 -49 76 -57 22 -4 37 -12 37 -20 0 -13 63
-20 138 -16 21 1 22 -3 23 -66 1 -100 9 -395 10 -407 1 -5 0 -14 -2 -20 -1 -5
0 -24 4 -41 4 -16 4 -40 0 -52 -5 -13 -5 -55 -1 -95 4 -40 9 -121 11 -181 2
-77 6 -111 15 -114 10 -3 10 -7 1 -18 -25 -30 25 -695 78 -1034 37 -237 37
-236 9 -292 -14 -29 -26 -55 -26 -60 0 -14 -135 -279 -200 -393 -47 -82 -140
-271 -140 -286 0 -8 -7 -24 -15 -35 -8 -10 -15 -24 -15 -30 0 -6 -24 -47 -52
-91 -43 -64 -115 -199 -170 -315 -4 -10 -5 -24 -2 -33 4 -8 2 -21 -4 -28 -5
-6 -12 -32 -16 -56 -6 -40 -5 -43 14 -38 23 6 24 3 9 -25 -14 -26 5 -47 46
-50 17 -1 35 -8 40 -16 9 -11 16 -9 38 8 15 12 27 17 27 12 0 -6 10 -8 23 -4
21 5 21 4 4 -15 -9 -11 -15 -22 -13 -24 8 -8 86 3 81 11 -3 5 3 6 13 3 12 -3
41 14 84 52 62 52 158 159 158 174 0 4 25 33 55 64 39 40 53 61 48 73 -5 13
-3 16 10 11 18 -7 33 8 17 18 -15 9 -2 25 21 25 12 0 19 7 19 18 0 10 9 25 20
35 11 9 20 24 20 33 0 12 -5 11 -20 -7 -23 -29 -28 -5 -5 25 8 11 15 25 15 32
0 7 13 27 29 44 15 17 34 49 40 70 11 38 27 57 37 47 3 -3 -2 -19 -10 -36 -10
-18 -12 -32 -6 -36 5 -3 16 8 25 25 8 16 19 30 24 30 11 0 21 -25 21 -55 0
-13 4 -26 9 -29 5 -3 16 -41 26 -83 34 -152 79 -299 117 -388 22 -49 41 -91
42 -93 2 -1 15 2 29 7 24 10 28 6 69 -59 23 -39 48 -70 54 -70 6 0 19 -9 29
-20 24 -27 33 -25 41 6 l7 25 26 -25 c15 -14 31 -26 35 -26 13 0 45 44 46 63
0 12 12 23 31 30 23 9 29 16 25 31 -3 11 0 26 6 33 6 8 9 36 6 71 l-5 57 15
-52 c17 -59 27 -66 36 -27 4 14 17 39 28 55 21 27 21 33 10 117 -7 49 -19 103
-28 120 -8 17 -19 53 -24 79 -17 94 -42 198 -50 208 -4 6 -11 35 -14 65 -8 65
-24 111 -45 126 -9 7 -14 30 -15 62 0 27 -4 48 -7 46 -12 -7 -32 55 -25 78 3
13 3 47 -1 76 -5 44 -9 52 -24 47 -25 -8 -45 83 -22 100 13 10 11 25 -14 123
l-30 113 42 92 c23 51 85 176 139 279 53 104 103 200 110 215 7 16 20 42 29
58 9 17 31 59 50 95 39 75 58 109 73 130 6 8 24 40 40 70 15 30 33 62 40 70 7
8 25 40 41 70 36 69 89 151 388 605 132 200 269 412 305 471 36 58 76 122 89
142 52 79 153 296 168 360 18 77 19 263 2 329 -6 22 -27 59 -48 80 -20 22 -49
56 -64 76 -15 21 -51 49 -80 64 -47 25 -63 28 -172 30 -66 1 -143 -2 -170 -7
-28 -6 -84 -15 -125 -20 -97 -12 -250 -44 -275 -57 -11 -6 -37 -13 -59 -17
-21 -4 -52 -13 -70 -21 -17 -7 -103 -37 -191 -65 -142 -46 -239 -82 -300 -110
-11 -5 -55 -23 -98 -40 -43 -16 -110 -46 -149 -65 -39 -20 -74 -33 -77 -29 -6
6 -10 66 -9 144 1 162 -5 346 -13 348 -5 2 -9 72 -9 155 0 106 -5 170 -16 212
-9 33 -17 75 -19 92 -3 29 -49 123 -60 123 -2 0 -8 -6 -12 -12z m1837 -738 c0
-5 -4 -10 -9 -10 -6 0 -13 5 -16 10 -3 6 1 10 9 10 9 0 16 -4 16 -10z m-362
-367 c-10 -2 -26 -2 -35 0 -10 3 -2 5 17 5 19 0 27 -2 18 -5z m28 -37 c7 -18
-30 -104 -76 -179 -19 -32 -44 -74 -55 -92 -11 -19 -41 -65 -67 -102 -26 -37
-74 -108 -108 -158 -34 -49 -70 -99 -79 -110 -10 -11 -30 -41 -45 -68 -15 -26
-49 -77 -76 -113 -28 -36 -50 -67 -50 -69 0 -3 -19 -33 -43 -68 -24 -34 -46
-69 -50 -77 -4 -8 -22 -36 -39 -62 -18 -25 -55 -83 -83 -128 -27 -45 -74 -118
-103 -162 -30 -44 -64 -104 -77 -133 -13 -29 -29 -56 -35 -60 -7 -4 -24 -33
-39 -64 -35 -74 -111 -201 -120 -201 -7 0 -26 105 -36 205 -3 28 -10 88 -15
135 -6 47 -22 182 -35 300 -39 325 -66 514 -76 524 -5 6 -9 -3 -9 -24 0 -49
-6 -34 -14 34 -5 50 -4 57 9 52 12 -4 15 3 14 37 -1 74 -15 148 -30 157 -11 7
-11 12 -1 22 15 15 15 43 0 69 -11 17 -10 22 12 39 14 11 31 18 38 15 7 -3 32
5 55 17 23 12 54 24 70 25 15 2 44 11 65 22 20 10 53 22 72 26 19 4 49 13 65
21 17 7 57 20 90 28 56 13 175 45 255 67 123 35 282 63 414 73 38 3 70 7 72 9
2 1 30 3 64 4 43 2 62 -2 66 -11z m-1297 -853 c1 -7 -3 -13 -9 -13 -5 0 -10
17 -9 38 1 33 2 34 9 12 4 -14 8 -31 9 -37z m13 -115 c3 -32 2 -58 -2 -58 -8
0 -27 114 -22 130 8 23 19 -12 24 -72z m5 -130 c-3 -7 -5 -2 -5 12 0 14 2 19
5 13 2 -7 2 -19 0 -25z m13 -74 c0 -14 -4 -23 -10 -19 -5 3 -10 15 -10 26 0
10 5 19 10 19 6 0 10 -12 10 -26z m14 -70 c10 -27 7 -56 -6 -52 -15 5 -24 68
-10 68 6 0 13 -7 16 -16z m21 -199 c2 -16 6 -72 9 -123 3 -51 12 -105 20 -120
8 -16 13 -47 11 -72 -4 -62 -4 -60 -14 -60 -10 0 -18 39 -26 135 -3 39 -10
108 -16 155 -5 47 -8 114 -8 150 l1 65 10 -50 c5 -27 11 -63 13 -80z m-460
-315 c3 -5 1 -10 -4 -10 -6 0 -11 5 -11 10 0 6 2 10 4 10 3 0 8 -4 11 -10z
m502 -152 c-3 -8 -6 -5 -6 6 -1 11 2 17 5 13 3 -3 4 -12 1 -19z m259 -594 c-4
-9 -9 -15 -11 -12 -3 3 -3 13 1 22 4 9 9 15 11 12 3 -3 3 -13 -1 -22z m-75
-151 c-8 -15 -10 -15 -11 -2 0 17 10 32 18 25 2 -3 -1 -13 -7 -23z m119 -749
c0 -8 -4 -12 -10 -9 -5 3 -10 10 -10 16 0 5 5 9 10 9 6 0 10 -7 10 -16z m28
-110 c15 -51 15 -67 2 -59 -5 3 -10 17 -10 30 0 13 -4 27 -10 30 -5 3 -10 18
-10 33 0 34 14 18 28 -34z m42 -145 c0 -5 -4 -9 -10 -9 -5 0 -10 7 -10 16 0 8
5 12 10 9 6 -3 10 -10 10 -16z m50 -171 c4 -21 4 -38 -1 -38 -10 0 -29 67 -28
100 l0 25 11 -25 c6 -14 14 -42 18 -62z"/>
<path d="M6330 4865 c0 -8 5 -15 10 -15 6 0 10 7 10 15 0 8 -4 15 -10 15 -5 0
-10 -7 -10 -15z"/>
<path d="M940 6420 c-11 -11 -23 -20 -27 -20 -22 -1 -93 -144 -93 -187 0 -12
-4 -24 -9 -28 -15 -9 -73 -211 -91 -316 -5 -26 -13 -64 -19 -85 -6 -22 -11
-53 -11 -71 0 -17 -4 -34 -9 -37 -5 -3 -7 -23 -4 -45 3 -22 1 -41 -5 -45 -14
-9 -35 31 -25 47 4 6 8 32 10 56 1 25 7 57 13 72 6 15 10 42 8 60 -3 33 -4 32
-20 -21 -9 -30 -18 -71 -19 -90 -2 -19 -7 -40 -12 -47 -5 -7 -11 -43 -12 -80
-5 -92 -25 -194 -37 -187 -5 3 -6 -15 -2 -47 5 -38 4 -50 -5 -45 -6 4 -11 1
-11 -8 0 -8 6 -16 13 -19 8 -3 4 -11 -11 -22 -22 -16 -22 -18 -5 -30 17 -13
17 -14 -1 -28 -13 -9 -15 -16 -8 -21 6 -4 9 -13 6 -21 -4 -8 -10 -12 -15 -9
-5 3 -9 -2 -9 -10 0 -8 5 -18 11 -21 7 -5 8 -25 3 -59 -4 -28 -8 -58 -9 -66 0
-9 -4 -20 -7 -25 -3 -6 -8 -54 -12 -107 -5 -69 -4 -102 5 -116 10 -16 10 -23
-4 -37 -20 -19 -22 -42 -4 -48 10 -3 10 -9 0 -26 -7 -11 -13 -35 -13 -53 0
-17 -3 -28 -7 -24 -4 4 -8 16 -8 26 0 11 -4 19 -10 17 -5 -1 -9 -9 -8 -17 1
-8 -3 -42 -9 -75 -6 -33 -10 -75 -10 -92 1 -18 -2 -33 -6 -33 -4 0 -7 -35 -7
-77 -1 -43 -4 -96 -8 -118 -13 -67 -15 -145 -6 -151 5 -3 7 -10 3 -15 -3 -6
-6 -45 -6 -87 1 -43 -5 -90 -13 -107 -24 -54 -16 -870 11 -1090 9 -75 11 -96
29 -275 22 -235 34 -326 46 -356 5 -15 14 -58 19 -98 11 -80 15 -97 65 -316
50 -218 136 -524 158 -565 6 -11 12 -26 13 -33 1 -8 5 -16 7 -19 3 -3 -38 -64
-92 -136 -185 -252 -290 -434 -346 -602 -29 -85 -44 -172 -28 -162 5 4 16 -5
23 -18 7 -13 16 -22 20 -20 4 2 12 -7 18 -20 9 -20 19 -25 46 -25 29 0 41 8
77 53 24 28 52 58 62 66 30 22 99 87 243 229 74 72 136 132 139 132 3 0 10
-12 15 -26 6 -14 16 -24 23 -21 6 2 21 0 31 -6 16 -8 18 -7 11 9 -14 35 -17
64 -6 64 15 0 36 -36 56 -98 12 -39 21 -52 32 -48 8 3 17 6 20 6 4 0 -2 9 -12
20 -17 19 -15 50 4 50 5 0 13 -10 17 -22 6 -21 31 -47 45 -48 4 0 6 27 4 60
-2 44 1 60 11 60 15 0 28 -18 29 -40 0 -8 7 -15 15 -15 8 0 16 7 16 15 1 8 2
21 3 28 2 19 18 14 24 -8 6 -24 43 -26 71 -5 15 11 23 12 33 3 20 -16 41 6 27
30 -11 18 -8 52 5 52 4 0 22 -16 41 -35 19 -19 37 -30 40 -25 3 6 5 35 4 65
-2 55 9 74 19 33 9 -33 37 -4 37 39 0 32 2 35 24 29 14 -3 28 -1 31 4 8 14
-13 331 -26 390 -9 38 -7 46 7 57 9 6 33 27 52 45 43 39 170 144 337 276 66
52 157 127 202 166 45 39 120 102 166 140 69 56 84 72 79 90 -5 19 -4 19 11 7
11 -9 21 -10 30 -4 6 5 60 48 119 96 117 94 185 142 296 207 68 40 73 45 67
71 -6 25 -3 30 29 43 20 8 36 21 36 28 0 23 24 68 36 68 17 0 27 32 12 41 -6
4 -25 5 -42 2 -22 -5 -27 -3 -21 7 4 7 2 16 -6 20 -10 7 -7 13 12 29 19 16 22
23 13 38 -14 23 -50 28 -80 12 -13 -7 -27 -9 -31 -6 -3 4 -1 7 5 7 7 0 12 14
12 30 0 26 -4 30 -26 30 -36 0 -57 25 -52 61 4 24 0 34 -19 46 -13 9 -22 22
-19 29 6 16 -43 36 -81 34 -38 -3 -94 10 -87 21 3 5 -7 9 -21 9 -80 0 -271
-147 -550 -423 -286 -282 -635 -621 -643 -624 -11 -4 -104 381 -149 617 -41
218 -57 313 -78 460 -13 96 -31 220 -39 275 -15 100 -45 425 -66 710 -6 83
-13 173 -15 200 -3 28 -10 113 -16 190 -7 89 -9 184 -3 260 4 66 9 138 10 160
1 22 9 96 19 164 9 69 14 150 11 185 -3 33 -6 225 -6 426 -1 267 -4 368 -13
379 -10 12 -9 14 4 9 14 -5 17 5 22 60 4 39 3 70 -3 76 -6 6 -10 24 -9 40 1
30 1 30 9 6 8 -24 8 -23 9 8 1 19 -3 31 -9 27 -5 -3 -7 15 -5 47 4 46 4 49 -5
23 -6 -16 -13 -45 -15 -64 -3 -19 -9 -39 -14 -45 -5 -6 -11 -27 -14 -46 -13
-84 -17 -110 -25 -131 l-9 -23 -6 26 c-4 15 -3 38 2 51 6 14 7 27 4 30 -3 3
-1 12 3 19 5 7 9 24 10 38 1 34 22 235 36 343 8 65 8 91 0 99 -13 13 -14 10
-32 -59 -15 -60 -24 -53 -17 13 9 85 -10 107 -53 64z m58 -672 c-4 -41 -28
-50 -28 -10 0 16 3 32 7 35 15 16 24 5 21 -25z m-17 -91 c-8 -8 -11 -7 -11 4
0 20 13 34 18 19 3 -7 -1 -17 -7 -23z m-316 -107 c3 -11 3 -25 0 -30 -11 -18
-34 8 -28 30 7 26 20 25 28 0z m-5 -67 c0 -10 -3 -35 -6 -56 l-7 -37 -13 26
c-15 28 -18 66 -7 77 13 13 33 7 33 -10z m-28 -262 c-5 -14 -10 -53 -11 -86
-1 -33 -6 -87 -11 -120 -6 -33 -10 -79 -10 -102 0 -24 -4 -43 -9 -43 -11 0
-19 108 -9 118 4 4 3 23 -2 42 -8 27 -6 42 5 67 8 17 12 38 9 47 -3 9 -1 23 6
31 7 9 9 26 5 45 -4 20 -3 30 5 30 7 0 10 7 6 16 -3 9 -1 35 6 58 l13 41 3
-59 c2 -33 -1 -71 -6 -85z m418 48 c0 -6 -4 -7 -10 -4 -5 3 -10 11 -10 16 0 6
5 7 10 4 6 -3 10 -11 10 -16z m-91 -223 c-9 -8 -10 1 -5 38 3 27 7 63 8 80 1
17 4 0 5 -38 3 -44 0 -73 -8 -80z m95 35 c3 -4 3 -11 0 -14 -8 -8 -34 3 -34
14 0 11 27 12 34 0z m-93 -144 c-7 -7 -9 2 -7 29 5 52 8 56 13 15 3 -18 0 -38
-6 -44z m9 -57 c0 -16 -2 -30 -5 -30 -9 0 -26 41 -20 50 12 20 25 9 25 -20z
m-12 -122 c-2 -6 -10 -14 -16 -16 -7 -2 -10 2 -6 12 7 18 28 22 22 4z m72 -57
c0 -6 -4 -13 -10 -16 -5 -3 -10 1 -10 9 0 9 5 16 10 16 6 0 10 -4 10 -9z
m-449 -52 l-9 -34 -1 31 c-1 17 2 34 6 37 12 13 14 -1 4 -34z m-105 -340 c-6
-55 -16 -62 -16 -12 0 35 6 53 17 53 2 0 2 -18 -1 -41z m-28 -412 c0 -24 -4
-50 -9 -58 -6 -9 -9 5 -9 44 0 31 4 57 9 57 5 0 9 -19 9 -43z m-19 -274 c-1
-33 -2 -35 -8 -13 -4 14 -6 31 -3 38 8 22 12 13 11 -25z m1 -99 c0 -14 -4 -23
-9 -20 -7 5 -8 23 -2 44 4 12 11 -3 11 -24z m-4 -151 c-10 -10 -19 5 -10 18 6
11 8 11 12 0 2 -7 1 -15 -2 -18z m13 -295 c1 -5 -3 -8 -9 -8 -5 0 -10 12 -9
28 0 24 1 25 9 7 5 -11 9 -23 9 -27z m1 -65 c-1 -36 -3 -44 -10 -31 -9 14 -3
78 6 78 2 0 4 -21 4 -47z m-3 -105 c-3 -8 -6 -5 -6 6 -1 11 2 17 5 13 3 -3 4
-12 1 -19z m13 -84 c0 -8 -5 -12 -10 -9 -6 4 -8 11 -5 16 9 14 15 11 15 -7z
m30 -284 c0 -5 -4 -10 -10 -10 -5 0 -10 5 -10 10 0 6 5 10 10 10 6 0 10 -4 10
-10z m2480 -87 c3 -3 -6 -14 -19 -24 -24 -20 -25 -20 -44 -1 -26 27 -13 45 26
36 18 -3 34 -8 37 -11z m-70 -193 c0 -5 -5 -10 -11 -10 -5 0 -7 5 -4 10 3 6 8
10 11 10 2 0 4 -4 4 -10z m-1750 -1602 c0 -19 -2 -20 -10 -8 -13 19 -13 30 0
30 6 0 10 -10 10 -22z m-153 -54 c-9 -9 -28 6 -21 18 4 6 10 6 17 -1 6 -6 8
-13 4 -17z m184 -9 c1 -17 -18 -17 -25 0 -4 11 -1 15 10 13 8 -2 15 -7 15 -13z
m-101 -62 c0 -13 -3 -13 -15 -3 -8 7 -12 16 -9 21 8 13 24 1 24 -18z"/>
<path d="M10065 6341 c-3 -5 -20 -13 -38 -16 -62 -14 -114 -49 -213 -145 -23
-22 -46 -40 -51 -40 -15 0 -165 -136 -183 -165 -8 -14 -20 -25 -27 -25 -7 0
-20 -11 -29 -25 -9 -14 -23 -25 -32 -25 -8 0 -36 -19 -62 -42 -26 -24 -69 -60
-96 -81 -27 -21 -76 -63 -109 -93 -33 -30 -83 -73 -112 -97 -29 -23 -118 -103
-199 -177 -81 -74 -210 -191 -288 -259 -210 -186 -472 -427 -545 -501 -97 -98
-262 -283 -269 -300 -3 -8 -24 -39 -46 -68 -22 -30 -35 -57 -30 -60 5 -4 10
-20 12 -37 5 -40 16 -52 60 -60 81 -16 98 -13 153 27 30 21 66 43 81 49 14 6
29 17 32 25 3 8 22 22 41 30 19 8 35 19 35 24 0 6 7 10 15 10 8 0 40 23 70 50
30 28 59 50 63 50 4 0 21 13 38 28 17 15 54 45 82 66 29 21 56 45 61 54 5 9
18 17 27 17 10 0 23 9 29 21 5 11 15 19 21 17 6 -2 30 10 53 27 41 30 42 30
36 8 -4 -13 -14 -32 -21 -43 -8 -11 -14 -25 -14 -32 0 -12 -37 -96 -140 -315
-17 -37 -35 -80 -40 -95 -5 -16 -23 -66 -41 -113 -17 -47 -40 -112 -51 -145
-11 -33 -23 -69 -27 -80 -21 -57 -44 -126 -57 -174 -15 -54 -68 -130 -91 -131
-6 0 -31 -18 -55 -41 -23 -22 -67 -61 -95 -86 -29 -26 -53 -55 -53 -65 0 -10
-7 -18 -15 -18 -9 0 -18 -7 -21 -15 -4 -8 -10 -15 -16 -15 -15 0 -98 -73 -98
-87 0 -7 -4 -13 -10 -13 -5 0 -31 -23 -57 -51 -27 -28 -60 -63 -74 -78 -15
-14 -34 -40 -43 -58 -9 -18 -23 -36 -31 -40 -8 -5 -16 -20 -18 -33 -3 -18 -12
-26 -36 -31 -18 -4 -33 -8 -34 -10 -1 -2 -17 -23 -35 -46 -17 -23 -32 -46 -32
-51 0 -5 -7 -15 -15 -22 -8 -7 -15 -19 -15 -28 0 -9 -10 -27 -22 -40 l-23 -24
23 -15 c25 -17 30 -43 7 -43 -25 0 -17 -17 21 -46 29 -23 39 -26 52 -16 27 20
42 25 50 18 3 -4 0 -11 -8 -16 -11 -7 -11 -10 -2 -10 7 0 28 16 48 35 19 19
38 35 41 35 4 0 21 14 37 31 67 67 142 128 157 129 8 0 26 12 40 26 13 14 39
35 57 46 18 11 37 31 42 43 9 23 134 95 145 83 3 -3 2 -32 -4 -64 -6 -33 -13
-84 -16 -114 -3 -30 -10 -75 -15 -100 -28 -130 -50 -625 -35 -765 11 -98 52
-188 97 -209 20 -10 41 -27 48 -40 23 -45 131 -59 230 -30 30 8 92 19 137 24
45 5 101 18 124 29 24 12 48 21 55 21 27 0 65 24 60 37 -3 8 8 22 27 33 17 11
34 15 35 10 6 -17 22 -11 22 8 0 20 68 62 102 62 28 0 42 9 51 33 4 9 17 17
29 17 14 0 43 19 73 47 68 67 105 93 131 93 12 0 43 21 73 50 28 28 56 50 61
50 5 0 24 14 42 30 18 17 56 41 83 55 48 22 101 63 100 77 0 13 54 48 74 48
12 0 21 6 21 14 0 22 98 88 121 81 11 -4 19 -2 19 4 0 6 7 11 16 11 9 0 33 18
54 40 21 22 43 40 49 40 6 0 11 5 11 10 0 6 10 15 23 21 12 5 40 21 62 34 63
39 87 47 95 35 5 -7 11 -6 20 5 7 8 19 15 26 15 8 0 14 7 14 15 0 8 8 15 18
15 9 0 32 9 51 21 21 13 36 17 40 10 4 -6 12 -6 20 -2 7 5 10 14 7 20 -5 7 5
11 28 11 30 0 36 4 36 21 0 17 3 19 14 10 11 -10 24 -2 64 36 27 26 62 57 77
69 27 20 27 21 11 46 -16 25 -16 26 9 42 19 12 24 23 20 37 -4 10 1 33 9 51
19 36 13 45 -29 50 -25 3 -29 7 -30 33 0 28 -2 30 -33 27 -19 -2 -48 3 -66 12
-25 12 -41 13 -66 6 -19 -5 -36 -8 -38 -5 -9 8 10 25 29 25 34 0 20 19 -34 45
-51 25 -54 26 -107 11 -30 -8 -82 -26 -115 -40 -33 -14 -70 -26 -82 -26 -13 0
-23 -4 -23 -10 0 -15 -86 -49 -121 -48 -21 1 -38 -6 -48 -19 -9 -11 -22 -18
-28 -16 -7 3 -20 -1 -30 -7 -15 -9 -14 -10 7 -5 24 6 23 5 -5 -14 -16 -12 -34
-21 -40 -21 -5 0 -3 5 5 10 13 9 13 10 0 10 -15 0 -52 -20 -37 -20 5 0 2 -7
-7 -15 -8 -8 -23 -12 -33 -9 -13 4 -14 3 -5 -4 18 -12 -32 -45 -57 -37 -17 5
-66 -27 -56 -37 10 -10 -25 -31 -52 -30 -17 0 -61 -25 -122 -69 -53 -37 -111
-78 -129 -91 -18 -13 -43 -31 -55 -41 -12 -9 -53 -40 -90 -69 -52 -38 -66 -53
-55 -60 9 -7 7 -8 -7 -4 -22 6 -101 -56 -98 -77 2 -15 -80 -77 -103 -77 -28 0
-84 -40 -84 -60 0 -21 -54 -64 -73 -57 -15 5 -69 -31 -62 -42 2 -5 -7 -19 -20
-31 -14 -13 -25 -19 -25 -13 0 6 7 14 16 17 9 4 14 9 11 12 -9 10 -58 -28 -53
-42 5 -14 -20 -27 -35 -18 -6 3 -17 0 -25 -7 -8 -6 -18 -9 -22 -5 -11 12 -12
316 -1 476 10 157 42 352 94 580 l17 75 155 105 c85 58 183 123 217 145 35 22
74 48 87 57 13 10 103 71 199 135 570 380 729 485 833 551 63 41 123 82 133
93 21 23 11 37 -12 18 -16 -13 -16 -12 -5 9 6 12 15 22 19 22 4 1 17 9 30 20
21 17 22 21 9 51 -12 31 -12 35 12 57 l26 23 -27 -5 c-21 -5 -28 -3 -28 9 0
25 19 55 35 55 17 0 48 42 37 50 -5 3 -8 19 -8 35 1 27 -2 30 -26 27 -26 -3
-27 0 -25 34 2 36 0 38 -37 46 -23 5 -43 4 -50 -1 -8 -7 -16 -4 -24 10 -15 23
-35 25 -52 4 -15 -18 -57 -20 -63 -2 -3 9 -11 9 -40 -1 -20 -7 -41 -11 -47 -7
-16 10 -145 -65 -221 -129 -20 -17 -61 -48 -90 -69 -71 -49 -111 -86 -104 -97
3 -5 0 -12 -6 -16 -8 -4 -9 -3 -5 4 20 33 -52 -11 -148 -87 -37 -31 -78 -63
-90 -71 -11 -8 -51 -40 -87 -72 -37 -32 -70 -58 -73 -58 -4 0 -59 -44 -124
-98 -146 -122 -190 -154 -195 -145 -8 15 178 467 288 699 62 130 181 347 216
392 10 13 80 70 156 127 76 57 171 130 212 162 41 32 79 60 85 62 14 6 143 99
212 154 33 25 93 72 135 104 106 81 241 199 257 223 12 19 10 22 -17 33 -36
13 -38 18 -11 42 29 26 25 51 -10 64 -34 11 -37 22 -15 54 18 28 8 45 -25 43
-22 -1 -25 3 -25 35 0 20 -7 43 -17 52 -9 9 -18 22 -20 27 -2 8 -11 8 -29 2
-22 -9 -29 -6 -50 19 -24 29 -43 36 -54 20z m150 -442 c-4 -5 -13 -9 -22 -9
-13 0 -13 3 -3 15 13 15 35 11 25 -6z m-515 -1199 c0 -5 -9 -14 -20 -20 -24
-13 -26 -7 -4 14 18 18 24 20 24 6z m-295 -220 c-10 -11 -23 -20 -28 -20 -6 0
-2 9 8 20 10 11 23 20 28 20 6 0 2 -9 -8 -20z m685 -115 c-7 -8 -17 -15 -22
-15 -6 0 -5 7 2 15 7 8 17 15 22 15 6 0 5 -7 -2 -15z m-940 -89 c0 -2 -7 -7
-16 -10 -8 -3 -12 -2 -9 4 6 10 25 14 25 6z m-1345 -106 c-3 -5 -10 -10 -16
-10 -5 0 -9 5 -9 10 0 6 7 10 16 10 8 0 12 -4 9 -10z m697 -962 c-6 -6 -7 0
-4 19 5 21 7 23 10 9 2 -10 0 -22 -6 -28z m-67 -373 c-3 -31 -9 -55 -11 -52
-3 2 -2 30 2 61 4 31 9 54 12 52 2 -3 1 -30 -3 -61z m-657 -64 c-13 -21 -38
-29 -38 -12 0 9 43 41 48 36 2 -2 -3 -12 -10 -24z m-78 -59 c0 -5 -14 -19 -31
-31 -31 -23 -31 -14 -1 22 16 18 32 23 32 9z m711 -55 c-8 -8 -11 -4 -11 14 0
33 14 47 18 19 2 -12 -1 -27 -7 -33z m683 -31 c-10 -8 -21 -12 -24 -9 -3 2 4
11 14 19 11 7 22 12 25 9 2 -3 -4 -12 -15 -19z m-682 -41 c-2 -14 -6 -25 -8
-25 -2 0 -4 11 -4 25 0 14 4 25 9 25 4 0 6 -11 3 -25z m-2 -139 c0 -8 -4 -18
-10 -21 -5 -3 -10 3 -10 14 0 12 5 21 10 21 6 0 10 -6 10 -14z m-13 -158 c-3
-8 -6 -5 -6 6 -1 11 2 17 5 13 3 -3 4 -12 1 -19z m-212 -628 c21 -23 4 -27
-19 -4 -18 17 -20 24 -8 24 5 0 17 -9 27 -20z"/>
<path d="M11330 6209 c0 -11 5 -17 10 -14 6 3 10 13 10 21 0 8 -4 14 -10 14
-5 0 -10 -9 -10 -21z"/>
<path d="M5130 6181 c0 -6 -13 -11 -29 -11 -16 0 -37 -8 -46 -17 -16 -16 -18
-15 -36 8 -16 20 -20 22 -29 9 -5 -8 -10 -25 -10 -37 0 -25 -16 -40 -23 -21
-3 10 -7 10 -20 -1 -15 -12 -17 -11 -17 8 0 12 -6 21 -15 21 -8 0 -15 -4 -15
-9 0 -6 -19 -14 -42 -18 -38 -8 -43 -12 -54 -49 -6 -22 -18 -54 -27 -70 -14
-28 -22 -62 -31 -134 -3 -19 -8 -57 -12 -85 -9 -69 -13 -107 -18 -200 -9 -145
-27 -328 -42 -430 -8 -55 -17 -138 -19 -185 -5 -88 -9 -120 -25 -181 -6 -20
-12 -74 -14 -120 -2 -46 -6 -91 -9 -99 -3 -8 -10 -51 -16 -95 -5 -44 -17 -132
-26 -195 -8 -63 -24 -182 -35 -265 -11 -82 -24 -179 -29 -215 -6 -36 -13 -96
-16 -135 -3 -38 -9 -83 -14 -100 -5 -16 -12 -59 -16 -95 -7 -70 -9 -93 -24
-215 -5 -44 -15 -132 -21 -195 -6 -63 -15 -128 -20 -145 -5 -16 -12 -77 -15
-135 -4 -58 -15 -159 -26 -225 -11 -66 -27 -163 -35 -215 -9 -52 -22 -131 -30
-175 -8 -44 -19 -111 -24 -150 -14 -113 -66 -303 -80 -289 -17 18 -80 264
-105 409 -14 83 -30 161 -35 175 -16 45 -59 244 -70 325 -6 44 -17 132 -25
195 -14 115 -20 149 -70 415 -41 215 -56 314 -61 390 -3 39 -12 111 -20 160
-18 105 -31 212 -44 380 -5 66 -15 163 -21 215 -6 52 -11 109 -11 125 1 17 -5
62 -13 100 -7 39 -17 96 -20 127 -4 32 -11 60 -16 63 -5 4 -9 16 -9 29 0 13
-9 31 -21 41 -16 16 -19 26 -14 57 6 34 1 48 -35 109 -32 54 -41 78 -36 99 3
17 0 32 -8 39 -8 7 -15 46 -19 107 -3 52 -10 101 -16 107 -5 7 -15 35 -21 62
-14 62 -65 173 -93 203 -12 13 -34 30 -48 37 -24 13 -30 11 -77 -18 -48 -29
-51 -34 -57 -81 -13 -120 -18 -178 -21 -284 -1 -63 -8 -119 -13 -126 -6 -7 -9
-15 -6 -18 3 -3 1 -33 -3 -66 -5 -36 -5 -62 0 -62 5 0 8 -8 7 -17 -1 -10 0
-25 3 -33 13 -35 26 -92 21 -86 -3 3 -13 -7 -21 -22 -17 -32 -23 -100 -10
-108 5 -4 5 -10 -1 -17 -16 -21 -25 -125 -11 -142 9 -11 9 -19 2 -28 -9 -10
-17 -121 -12 -152 4 -20 -1 -112 -10 -180 -8 -67 -5 -822 4 -915 2 -25 7 -83
10 -130 4 -47 8 -110 11 -140 2 -30 6 -89 9 -131 3 -42 13 -93 23 -113 14 -30
15 -41 5 -56 -17 -28 -15 -51 9 -106 15 -32 18 -49 10 -52 -6 -2 -11 -10 -11
-18 0 -9 5 -12 11 -8 9 5 10 -1 5 -21 -4 -17 -3 -31 4 -35 12 -8 72 -238 65
-250 -3 -5 -1 -12 5 -15 6 -4 8 -16 4 -27 -7 -23 13 -79 33 -91 8 -5 11 -17 8
-26 -3 -10 1 -23 8 -30 8 -6 13 -26 12 -47 -2 -25 4 -43 17 -56 15 -15 17 -22
7 -34 -7 -9 -8 -18 -2 -26 6 -7 13 -28 16 -46 4 -18 20 -60 37 -93 16 -34 30
-67 30 -75 0 -8 4 -14 8 -14 5 0 19 -19 32 -43 65 -117 165 -247 191 -247 15
0 59 -39 59 -53 0 -3 -8 -4 -17 0 -39 13 76 -65 142 -97 70 -34 71 -34 262
-43 182 -8 194 -7 232 12 22 12 43 25 46 31 3 6 24 19 46 31 117 59 187 196
279 539 17 63 37 156 45 205 29 171 66 343 95 440 49 161 172 759 220 1070 6
39 18 104 25 145 14 77 41 262 70 478 9 68 20 181 25 252 4 71 11 133 14 138
16 26 29 379 30 799 1 260 -1 473 -4 473 -9 0 -30 53 -24 61 3 5 12 9 20 9 19
0 18 33 -2 71 -8 17 -13 37 -10 45 3 8 2 14 -3 14 -4 0 -12 19 -17 43 -8 35
-13 42 -35 45 -22 3 -28 10 -33 37 -6 32 -26 59 -26 36z m-305 -141 c-12 -39
-14 -40 -9 -10 8 49 16 77 21 65 2 -6 -4 -30 -12 -55z m-108 -827 c-3 -10 -5
-2 -5 17 0 19 2 27 5 18 2 -10 2 -26 0 -35z m-1517 -613 c0 -5 -5 -10 -11 -10
-5 0 -7 5 -4 10 3 6 8 10 11 10 2 0 4 -4 4 -10z m1440 -22 c0 -23 -3 -29 -11
-21 -6 6 -8 20 -4 32 9 30 15 26 15 -11z m-1446 -176 c-3 -53 -8 -99 -10 -101
-2 -2 -4 44 -4 103 0 65 4 105 9 101 6 -3 8 -46 5 -103z m1696 -1658 c0 -8 -5
-12 -10 -9 -6 4 -8 11 -5 16 9 14 15 11 15 -7z m-1600 -300 c0 -8 -4 -12 -10
-9 -5 3 -10 13 -10 21 0 8 5 12 10 9 6 -3 10 -13 10 -21z m1516 -51 c-10 -10
-19 5 -10 18 6 11 8 11 12 0 2 -7 1 -15 -2 -18z m-779 -295 c-3 -8 -6 -5 -6 6
-1 11 2 17 5 13 3 -3 4 -12 1 -19z m683 -192 c0 -8 -4 -18 -10 -21 -5 -3 -10
3 -10 14 0 12 5 21 10 21 6 0 10 -6 10 -14z m-1130 -315 c0 -10 -7 -6 -20 14
-11 17 -20 35 -20 40 1 17 40 -36 40 -54z m306 -298 c53 -34 2 -23 -56 13
l-25 16 29 -7 c15 -3 39 -13 52 -22z m75 -33 c5 0 9 -4 9 -10 0 -14 -13 -12
-36 6 -17 14 -17 15 -1 10 10 -3 23 -6 28 -6z"/>
<path d="M727 6073 c-4 -3 -7 -16 -6 -27 0 -19 1 -19 10 3 10 24 8 36 -4 24z"/>
<path d="M685 5910 c-4 -17 -5 -34 -2 -36 2 -3 7 10 11 27 8 42 0 50 -9 9z"/>
<path d="M11337 5569 c7 -7 9 -24 6 -39 -3 -15 0 -31 6 -34 7 -5 11 8 11 38 0
37 -3 46 -17 46 -13 0 -14 -3 -6 -11z"/>
<path d="M11368 5034 c-5 -4 -8 -16 -8 -28 0 -14 3 -17 11 -9 6 6 9 19 7 28
-1 9 -6 13 -10 9z"/>
<path d="M11409 3803 c-1 -10 -3 -34 -5 -54 -2 -21 3 -45 11 -55 13 -17 14
-12 14 49 -1 37 -5 70 -10 73 -5 3 -10 -3 -10 -13z"/>
<path d="M11416 3655 c-8 -22 3 -40 16 -27 7 7 7 16 1 27 -9 16 -10 16 -17 0z"/>
<path d="M11425 3563 c1 -16 5 -53 9 -83 4 -30 8 -75 11 -100 5 -56 24 -122
33 -116 5 3 0 58 -10 123 -10 65 -21 137 -25 161 -6 46 -22 59 -18 15z"/>
<path d="M11470 3240 c0 -5 5 -10 10 -10 6 0 10 5 10 10 0 6 -4 10 -10 10 -5
0 -10 -4 -10 -10z"/>
<path d="M11474 3179 c3 -17 6 -40 6 -50 0 -11 5 -19 10 -19 6 0 10 23 10 50
0 39 -3 50 -16 50 -13 0 -15 -7 -10 -31z"/>
<path d="M6120 1819 c0 -5 5 -7 10 -4 6 3 10 8 10 11 0 2 -4 4 -10 4 -5 0 -10
-5 -10 -11z"/>
<path d="M3700 1370 c0 -5 5 -10 11 -10 5 0 7 5 4 10 -3 6 -8 10 -11 10 -2 0
-4 -4 -4 -10z"/>
<path d="M1000 476 c0 -8 4 -17 9 -20 5 -4 7 3 4 14 -6 23 -13 26 -13 6z"/>
</g>
</svg>