<svg width="30" height="30" viewBox="0 0 30 30" fill="none" xmlns="http://www.w3.org/2000/svg">
    <g transform="translate(0, 4) scale(0.79)">
        <path d="M15 2C8.925 2 3.8125 6.6875 3.125 13.125L9.375 16.25C10 15.75 10.875 15.375 11.875 15.375H12.125C12.375 15 12.625 14.5625 12.875 14.125C13.5 13.125 14.25 12 14.875 11.125C15.125 8.5 17.375 6.375 20.125 6.375C23.125 6.375 25.625 8.875 25.625 11.875C25.625 14.625 23.5 16.875 20.875 17.125C20 17.75 18.875 18.5 17.875 19.125C17.375 19.375 16.875 19.625 16.5 19.875V20C16.5 22.0625 14.8125 23.75 12.75 23.75C10.6875 23.75 9 22.0625 9 20C9 19.875 9 19.75 9 19.625L3.25 16.875C4.375 22.75 9.25 27.125 15 27.125C21.875 27.125 27.5 21.5 27.5 14.625C27.5 7.75 21.875 2 15 2ZM20 8.75C18.125 8.75 16.625 10.25 16.625 12.125C16.625 14 18.125 15.5 20 15.5C21.875 15.5 23.375 14 23.375 12.125C23.375 10.25 21.875 8.75 20 8.75ZM20 10C21.125 10 22 10.875 22 12C22 13.125 21.125 14 20 14C18.875 14 18 13.125 18 12C18 10.875 18.875 10 20 10ZM12.75 16.875C12.25 16.875 11.75 17 11.375 17.25L13.375 18.25C14.125 18.625 14.375 19.5 14 20.25C13.75 20.875 13.125 21.125 12.5 21.125C12.25 21.125 12 21.125 11.75 21L9.75 20C10 21.375 11.25 22.5 12.75 22.5C14.25 22.5 15.5 21.25 15.5 19.75C15.5 18.25 14.25 16.875 12.75 16.875Z" fill="#FCFCFC"/>
    </g>
</svg>